<svg width="620" height="591" viewBox="0 0 620 591" fill="none" xmlns="http://www.w3.org/2000/svg">
<path fill-rule="evenodd" clip-rule="evenodd" d="M144 158H242.029C254.943 106.384 316.271 93.7035 463.24 93.7035H571.131C583.894 93.7035 595.592 86.5916 601.467 75.2618L606.832 55.8233L615.592 17.9432L620 0L606.894 9.06512C598.536 14.8463 588.614 17.9432 578.451 17.9432H463.24C410.734 18.1735 386.234 20.4734 355.57 23.4259C217.615 45.2409 173.1 74.7259 144 158ZM0 591H98.7597C121.331 591 141.104 575.878 147.015 554.094L164 491.5L176.16 441.62C180.025 435.658 193.277 416.86 211.776 408.321C280.497 376.599 390.777 361.96 390.777 361.96L413.529 269.356L310.191 291.591L258.234 302.884L234.896 309.034C219.326 313.138 206.823 324.437 201.063 339.195L237 191H137C137 191 94.5 409 45 533.5C29.0465 573.626 0 591 0 591ZM337 591H435.76C458.331 591 478.104 575.878 484.015 554.094L501 491.5L525.5 391L574 191H474C474 191 431.5 409 382 533.5C366.046 573.626 337 591 337 591Z" fill="#d2e3c3"/>
</svg>
